<svg width="48" height="48" viewBox="0 0 48 48" fill="none" xmlns="http://www.w3.org/2000/svg">
<rect width="48" height="48" rx="24" fill="#F9FAFB"/>
<rect x="18" y="19" width="13" height="10" rx="3" fill="#CACDDE"/>
<rect x="12.65" y="14.65" width="23.7" height="18.7" rx="4.35" stroke="#898DAE" stroke-width="1.3"/>
<path d="M17 20L22.8375 24.1697C23.5329 24.6664 24.4671 24.6664 25.1625 24.1697L31 20" stroke="#898DAE" stroke-width="1.3" stroke-linecap="round"/>
<circle cx="35" cy="17" r="5" fill="#F35BAC"/>
<path d="M33.3878 19V18.429L34.9027 16.9439C35.0476 16.7976 35.1683 16.6676 35.2649 16.554C35.3615 16.4403 35.4339 16.3303 35.4822 16.2237C35.5305 16.1172 35.5547 16.0036 35.5547 15.8828C35.5547 15.745 35.5234 15.6271 35.4609 15.5291C35.3984 15.4297 35.3125 15.353 35.2031 15.299C35.0938 15.245 34.9695 15.218 34.8303 15.218C34.6868 15.218 34.5611 15.2479 34.4531 15.3075C34.3452 15.3658 34.2614 15.4489 34.2017 15.5568C34.1435 15.6648 34.1143 15.7933 34.1143 15.9425H33.3622C33.3622 15.6655 33.4254 15.4247 33.5518 15.2202C33.6783 15.0156 33.8523 14.8572 34.0739 14.745C34.2969 14.6328 34.5526 14.5767 34.8409 14.5767C35.1335 14.5767 35.3906 14.6314 35.6122 14.7408C35.8338 14.8501 36.0057 15 36.1278 15.1903C36.2514 15.3807 36.3132 15.598 36.3132 15.8423C36.3132 16.0057 36.282 16.1662 36.2195 16.3239C36.157 16.4815 36.0469 16.6562 35.8892 16.848C35.733 17.0398 35.5135 17.272 35.2308 17.5447L34.4787 18.3097V18.3395H36.3793V19H33.3878Z" fill="white"/>
</svg>
